<svg width="9" height="15" viewBox="0 0 9 15" version="1.1" xmlns="http://www.w3.org/2000/svg" xmlns:xlink="http://www.w3.org/1999/xlink">
<title>Group</title>
<desc>Created using Figma</desc>
<g id="Canvas" transform="translate(-162 3629)">
<g id="Group">
<g id="Vector">
<use xlink:href="#path0_stroke" transform="translate(163 -3628)" fill="#2D3330"/>
</g>
</g>
</g>
<defs>
<path id="path0_stroke" d="M 7.61157 0.731091C 8.01534 0.354278 8.0372 -0.27851 7.66038 -0.68228C 7.28357 -1.08605 6.65078 -1.1079 6.24701 -0.731091L 7.61157 0.731091ZM -6.74315e-08 6.46667L -0.68228 5.73558C -0.884932 5.9247 -0.999993 6.18945 -1 6.46664C -1.00001 6.74383 -0.88496 7.00859 -0.682318 7.19772L -6.74315e-08 6.46667ZM 6.31768 13.7311C 6.72143 14.1079 7.35422 14.0861 7.73106 13.6823C 8.10789 13.2786 8.08607 12.6458 7.68232 12.2689L 6.31768 13.7311ZM 6.24701 -0.731091L -0.68228 5.73558L 0.68228 7.19776L 7.61157 0.731091L 6.24701 -0.731091ZM -0.682318 7.19772L 6.31768 13.7311L 7.68232 12.2689L 0.682318 5.73561L -0.682318 7.19772Z"/>
</defs>
</svg>
